<?xml version="1.0" encoding="UTF-8"?><svg id="a" xmlns="http://www.w3.org/2000/svg" viewBox="0 0 45.99 62.3"><defs><style>.c{fill:#fff;}</style></defs><path class="c" d="M28.4,61.99c-3.55,0-8.42-2.43-5.38-11.87.81-2.64,2.74-6.09,5.58-10.65,2.43-3.96.61-6.7-7.2.61-3.45,3.14-8.42,8.83-14.2,20.08-.71,1.42-1.62,1.52-3.75,1.52-1.52.1-2.43,0-3.45.61C8.22,45.25,18.06,24.56,27.9,6.4,30.23,2.14,31.85-.19,35.1.01c1.32.1,2.84.61,4.26.41-4.46,4.56-17.65,29.42-25.97,46.36,2.74-3.45,5.48-6.59,8.22-8.93,4.87-4.36,15.32-10.75,18.77-9.54,0,0-10.85,19.07-12.17,26.17-.81,4.16.2,5.28,1.52,5.38,4.67.3,11.56-13.49,13.69-17.85.91-1.83,2.44-1.12,1.42,1.01-3.35,7-8.93,18.97-16.43,18.97Z"/><path class="c" d="M45.7,19.3c-.73,1.95-2.58,3.48-4.13,3.43s-2.23-1.67-1.5-3.62,2.58-3.48,4.13-3.43,2.23,1.67,1.5,3.62Z"/></svg>